PathFileType	4	(X/Y/Z)	Walk2.trc
DataRate	CameraRate	NumFrames	NumMarkers	Units	OrigDataRate	OrigDataStartFrame	OrigNumFrames
200.000000	200.000000	6	61	mm	200.000000	509	591
Frame#	Times		RCAR		RTH2		LTH3		LTB1		LWRU		LBHD		LFA1		RTH3		LUA1		LElbow		LCAR		RToe		RPSI		RASI		RTB2		RLFC		RTB3		RTB1		C7		RMT5		LElbowM		RTB4		LTH4		RTH4		LTH1		LTH2		RWRR		RBHD		LWRR		STRN		RFA1		RMT1		RTH1		RMMAL		RLMAL		RBack		T10		LPSI		LASI		CLAV		RElbow		RUA1		RCAL		LLFC		LMFC		LACR1		LTB4		RElbowM		LTB3		LCAL		RFHD		RACR1		LFHD		LMMAL		RMFC		LTB2		LMT5		LLMAL		RWRU		LToe		LMT1
			X1	Y1	Z1	X2	Y2	Z2	X3	Y3	Z3	X4	Y4	Z4	X5	Y5	Z5	X6	Y6	Z6	X7	Y7	Z7	X8	Y8	Z8	X9	Y9	Z9	X10	Y10	Z10	X11	Y11	Z11	X12	Y12	Z12	X13	Y13	Z13	X14	Y14	Z14	X15	Y15	Z15	X16	Y16	Z16	X17	Y17	Z17	X18	Y18	Z18	X19	Y19	Z19	X20	Y20	Z20	X21	Y21	Z21	X22	Y22	Z22	X23	Y23	Z23	X24	Y24	Z24	X25	Y25	Z25	X26	Y26	Z26	X27	Y27	Z27	X28	Y28	Z28	X29	Y29	Z29	X30	Y30	Z30	X31	Y31	Z31	X32	Y32	Z32	X33	Y33	Z33	X34	Y34	Z34	X35	Y35	Z35	X36	Y36	Z36	X37	Y37	Z37	X38	Y38	Z38	X39	Y39	Z39	X40	Y40	Z40	X41	Y41	Z41	X42	Y42	Z42	X43	Y43	Z43	X44	Y44	Z44	X45	Y45	Z45	X46	Y46	Z46	X47	Y47	Z47	X48	Y48	Z48	X49	Y49	Z49	X50	Y50	Z50	X51	Y51	Z51	X52	Y52	Z52	X53	Y53	Z53	X54	Y54	Z54	X55	Y55	Z55	X56	Y56	Z56	X57	Y57	Z57	X58	Y58	Z58	X59	Y59	Z59	X60	Y60	Z60	X61	Y61	Z61

509	2.545	986.05	907.18	278.96	786.2	678.34	187.39	839.64	614.16	-136.11	913.77	383.67	-43.725	641.13	833.27	-255.81	699.97	1625.9	-93.62	629.44	966.09	-272.49	703.31	591.94	204.9	674.02	1268.4	-260.98	630.73	1116.9	-271.34	703.08	779.45	-252.6	470.44	28.111	116.09	579.59	1005.8	63.018	772.43	1029.7	174.14	538.58	304.15	182.66	667.54	481.46	198.96	493.83	230	112.4	632.94	348.57	131.84	669.06	1499.6	-8.5113	391.73	61.449	167.55	595.22	1117.4	-202.43	564.89	289.34	120.98	812.54	701.42	-153.44	717.39	684.78	213.35	787.59	790.17	-167.61	876.56	725.74	-130.94	955.76	940.1	229.22	702.73	1639.5	47.714	705.77	836.12	-203.53	852.9	1243.4	-4.853	832.95	1007.7	308.14	434.11	45.742	93.096	725.28	780.43	214.34	418.03	168.96	69.566	370.17	174.75	144.47	602.88	1418.5	135.56	567.95	1274.4	7.5537	578.34	1001.5	-14.814	792.31	1022.9	-124.49	802.52	1414.7	-9.7914	747.57	1139.6	305.38	754.95	1295.2	255.99	315.46	192.5	88.941	860.29	515.43	-124.63	872.38	526.58	4.5626	734.89	1444.6	-177.53	905.88	294.04	-40.895	712.51	1113.3	233.97	897.15	198.13	-40.245	790.79	28.418	-39.52	879.66	1673.3	19.967	756.9	1460.2	148.76	878.68	1667.5	-56.55	878.2	90.705	-0.29928	704.35	484.29	76.56	886.2	295.25	-113.9	947.55	23.47	-117.56	851.28	69.428	-81.979	918.36	903.9	288.86	1050.6	31.527	-51.06	997.47	39.663	-34.095
510	2.55	988.28	905.72	279.01	794.58	679.02	187.76	843.62	614.31	-136.72	916.36	383.22	-44.116	649.76	833.59	-256.99	705.05	1626.4	-94.433	637.41	966.35	-273.76	712.79	591.6	205.34	680.57	1268.8	-261.89	637.89	1117.2	-272.59	712.06	780.16	-253.62	474.52	28.821	117.07	584.95	1006	62.043	776.45	1030.4	174.48	547.95	305.78	183.19	678.32	481.22	199.52	502.47	232.05	113.14	641.85	348.08	132.48	674.18	1500.1	-9.2898	397.31	64.832	168.07	602.11	1117.4	-203.83	574.25	290.59	121.69	817.27	701.79	-154.14	725.61	684.66	213.51	792.92	790.7	-168.3	881.36	725.61	-131.48	958.44	938.89	229.17	707.81	1640.1	46.882	714.3	836.84	-204.58	858.25	1244.1	-5.2503	835.74	1007.5	307.37	439.21	47.582	93.575	732.24	780.42	214.12	426.03	171.83	69.999	377.98	178.46	144.81	607.82	1419.1	134.68	573.24	1274.8	6.6495	583.9	1002.1	-15.85	797.69	1023.5	-124.83	807.74	1415.4	-10.331	751.29	1139.9	304.16	759.28	1295.6	255.15	323.87	197.36	89.043	863.66	515.34	-125.11	875.91	526.49	4.0076	740.43	1445.2	-178.14	907.72	293.65	-41.146	716.32	1113.9	232.44	898.18	197.81	-40.371	790.74	28.403	-39.553	884.74	1674	19.081	761.77	1460.8	148.16	883.77	1668	-57.432	878.28	90.631	-0.21965	715.77	483.86	76.949	887.91	294.96	-114.1	947.51	23.527	-117.57	851.31	69.449	-81.953	920.6	902.95	288.59	1050.6	31.559	-51.114	997.42	39.763	-34.106
511	2.555	990.42	904.22	279.1	802.91	679.81	188.13	847.39	614.42	-137.32	918.83	382.77	-44.543	658.48	833.94	-258.17	710.11	1626.9	-95.201	645.44	966.63	-275.02	722.22	591.4	205.74	687.11	1269.3	-262.78	645.08	1117.5	-273.83	721.14	780.94	-254.66	479.33	29.714	118.2	590.26	1006.2	61.044	780.43	1031.1	174.85	557.49	307.43	183.69	689.08	481.12	200.05	511.29	234.12	113.84	650.68	347.57	133.05	679.28	1500.6	-10.036	403.45	68.285	168.67	609.02	1117.5	-205.22	583.78	291.93	122.26	821.82	702.13	-154.84	733.79	684.65	213.67	798.09	791.19	-168.99	886	725.44	-132.02	961.04	937.63	229.15	712.87	1640.8	46.093	722.94	837.61	-205.63	863.56	1244.8	-5.6139	838.48	1007.2	306.63	444.99	49.576	94.162	739.15	780.5	213.91	434.27	174.68	70.377	386.09	182.08	145.13	612.73	1419.6	133.82	578.49	1275.3	5.7545	589.39	1002.7	-16.898	802.83	1024.2	-124.95	812.94	1416	-10.836	754.99	1140.2	302.95	763.57	1296	254.34	332.5	201.93	89.138	866.82	515.22	-125.59	879.15	526.34	3.4584	745.95	1445.8	-178.72	909.48	293.26	-41.431	720.12	1114.6	230.93	899.15	197.48	-40.528	790.69	28.384	-39.579	889.8	1674.6	18.239	766.62	1461.4	147.61	888.85	1668.6	-58.272	878.36	90.561	-0.155	727.01	483.63	77.166	889.47	294.66	-114.33	947.47	23.573	-117.59	851.32	69.464	-81.93	922.75	901.96	288.32	1050.6	31.611	-51.175	997.37	39.858	-34.12
512	2.56	992.48	902.7	279.23	811.19	680.73	188.51	850.98	614.5	-137.9	921.19	382.3	-44.999	667.29	834.32	-259.33	715.15	1627.4	-95.925	653.53	966.95	-276.26	731.6	591.33	206.12	693.66	1269.8	-263.65	652.29	1117.8	-275.05	730.34	781.78	-255.71	484.9	30.795	119.46	595.53	1006.5	60.027	784.37	1031.9	175.26	567.18	309.09	184.16	699.82	481.17	200.54	520.3	236.18	114.48	659.44	347.04	133.54	684.37	1501.2	-10.75	410.17	71.761	169.34	615.97	1117.6	-206.6	593.46	293.36	122.68	826.2	702.42	-155.51	741.93	684.76	213.81	803.1	791.65	-169.65	890.49	725.22	-132.57	963.57	936.34	229.17	717.92	1641.5	45.347	731.67	838.42	-206.68	868.83	1245.5	-5.9451	841.18	1007	305.92	451.44	51.692	94.859	746.01	780.68	213.71	442.75	177.47	70.707	394.47	185.6	145.43	617.62	1420.1	132.97	583.71	1275.8	4.8688	594.82	1003.3	-17.949	807.69	1024.7	-124.82	818.11	1416.7	-11.306	758.69	1140.5	301.77	767.84	1296.4	253.58	341.31	206.19	89.214	869.81	515.07	-126.06	882.1	526.14	2.9225	751.46	1446.4	-179.27	911.17	292.87	-41.743	723.91	1115.3	229.45	900.07	197.16	-40.71	790.64	28.362	-39.599	894.85	1675.3	17.442	771.44	1462	147.09	893.91	1669.2	-59.068	878.42	90.499	-0.10369	738.09	483.61	77.246	890.9	294.35	-114.56	947.43	23.609	-117.61	851.32	69.475	-81.911	924.8	900.94	288.05	1050.6	31.672	-51.238	997.31	39.945	-34.136
513	2.565	994.45	901.14	279.39	819.41	681.77	188.88	854.41	614.56	-138.48	923.46	381.84	-45.476	676.19	834.74	-260.47	720.18	1627.9	-96.605	661.67	967.3	-277.49	740.92	591.4	206.45	700.21	1270.3	-264.49	659.54	1118.2	-276.26	739.64	782.68	-256.76	491.23	32.055	120.83	600.75	1006.8	58.996	788.29	1032.7	175.68	577.01	310.77	184.59	710.52	481.38	201	529.48	238.24	115.07	668.16	346.52	133.96	689.45	1501.7	-11.432	417.45	75.214	170.07	622.94	1117.7	-207.97	603.29	294.85	122.99	830.39	702.68	-156.16	750.01	685	213.94	807.98	792.09	-170.3	894.84	724.97	-133.12	966.02	935.02	229.22	722.96	1642.2	44.645	740.49	839.29	-207.73	874.06	1246.2	-6.2453	843.83	1006.7	305.24	458.56	53.891	95.663	752.84	780.98	213.53	451.47	180.17	70.996	403.12	188.97	145.69	622.47	1420.7	132.14	588.9	1276.3	3.9925	600.19	1004	-18.997	812.21	1025.2	-124.38	823.26	1417.4	-11.743	762.38	1140.8	300.62	772.07	1296.8	252.86	350.32	210.12	89.26	872.66	514.91	-126.52	884.8	525.93	2.4074	756.95	1447	-179.8	912.77	292.49	-42.077	727.7	1116.1	227.99	900.95	196.84	-40.911	790.59	28.339	-39.612	899.89	1676	16.693	776.24	1462.6	146.61	898.96	1669.8	-59.819	878.48	90.445	-0.063814	749.01	483.79	77.224	892.21	294.05	-114.81	947.39	23.634	-117.62	851.29	69.484	-81.895	926.76	899.9	287.78	1050.5	31.736	-51.302	997.25	40.022	-34.152
514	2.57	996.34	899.57	279.59	827.57	682.93	189.24	857.72	614.6	-139.03	925.62	381.39	-45.964	685.15	835.19	-261.6	725.2	1628.5	-97.241	669.87	967.68	-278.7	750.17	591.63	206.75	706.76	1270.9	-265.31	666.81	1118.6	-277.44	749.04	783.64	-257.83	498.31	33.47	122.3	605.94	1007.2	57.957	792.22	1033.5	176.11	586.95	312.44	184.98	721.16	481.75	201.43	538.84	240.26	115.62	676.88	346.04	134.29	694.52	1502.3	-12.085	425.28	78.596	170.84	629.95	1117.8	-209.33	613.29	296.39	123.18	834.43	702.9	-156.77	758.04	685.37	214.05	812.71	792.5	-170.94	899.06	724.71	-133.68	968.4	933.67	229.3	727.98	1642.9	43.985	749.39	840.21	-208.78	879.25	1246.8	-6.5168	846.44	1006.5	304.6	466.33	56.133	96.567	759.63	781.39	213.35	460.44	182.75	71.253	412.04	192.18	145.92	627.3	1421.3	131.32	594.05	1276.9	3.1262	605.5	1004.7	-20.035	816.37	1025.6	-123.61	828.39	1418.1	-12.15	766.05	1141.2	299.49	776.27	1297.2	252.19	359.53	213.69	89.27	875.37	514.74	-126.96	887.28	525.7	1.919	762.44	1447.6	-180.29	914.31	292.1	-42.424	731.47	1116.8	226.59	901.79	196.53	-41.125	790.54	28.316	-39.62	904.92	1676.7	15.992	781.02	1463.3	146.18	904	1670.4	-60.522	878.53	90.4	-0.033392	759.8	484.16	77.137	893.42	293.75	-115.07	947.34	23.65	-117.64	851.26	69.494	-81.88	928.63	898.84	287.53	1050.5	31.798	-51.365	997.18	40.087	-34.168
